<svg width="293" height="61" viewBox="0 0 293 61" fill="none" xmlns="http://www.w3.org/2000/svg">
<g style="mix-blend-mode:hard-light" filter="url(#filter0_ddi_849_1930)">
<path d="M292 43C292 31.8174 292 26.2261 290.173 21.8156C287.737 15.9349 283.065 11.2628 277.184 8.8269C272.774 7 267.183 7 256 7H1M-827 -652.5V-676C-827 -687.183 -827 -692.774 -825.173 -697.184C-822.737 -703.065 -818.065 -707.737 -812.184 -710.173C-807.774 -712 -802.183 -712 -791 -712H-445.5C-434.317 -712 -428.726 -712 -424.316 -713.827C-418.435 -716.263 -413.763 -720.935 -411.327 -726.816C-409.5 -731.226 -409.5 -736.817 -409.5 -748V-893.5M-419 -177.173V-142.173C-419 -130.991 -419 -125.399 -420.827 -120.989C-423.263 -115.108 -427.935 -110.436 -433.816 -108C-438.226 -106.173 -443.817 -106.173 -455 -106.173H-791C-802.183 -106.173 -807.774 -106.173 -812.184 -104.346C-818.065 -101.91 -822.737 -97.2381 -825.173 -91.3575C-827 -86.947 -827 -81.3557 -827 -70.1731V86M256 -894H-1492C-1503.18 -894 -1508.77 -894 -1513.18 -892.173C-1519.07 -889.737 -1523.74 -885.065 -1526.17 -879.184C-1528 -874.774 -1528 -869.183 -1528 -858V50C-1528 61.1826 -1528 66.7739 -1526.17 71.1844C-1523.74 77.0651 -1519.07 81.7373 -1513.18 84.1731C-1508.77 86 -1503.18 86 -1492 86H256C267.183 86 272.774 86 277.184 84.1731C283.065 81.7373 287.737 77.0651 290.173 71.1844C292 66.7739 292 61.1826 292 50V-858C292 -869.183 292 -874.774 290.173 -879.184C287.737 -885.065 283.065 -889.737 277.184 -892.173C272.774 -894 267.183 -894 256 -894Z" stroke="#FF0000" stroke-opacity="0.2" stroke-width="2" stroke-linecap="round"/>
</g>
<g style="mix-blend-mode:hard-light" filter="url(#filter1_f_849_1930)">
<path d="M292 43C292 31.8174 292 26.2261 290.173 21.8156C287.737 15.9349 283.065 11.2628 277.184 8.8269C272.774 7 267.183 7 256 7H1M-827 -652.5V-676C-827 -687.183 -827 -692.774 -825.173 -697.184C-822.737 -703.065 -818.065 -707.737 -812.184 -710.173C-807.774 -712 -802.183 -712 -791 -712H-445.5C-434.317 -712 -428.726 -712 -424.316 -713.827C-418.435 -716.263 -413.763 -720.935 -411.327 -726.816C-409.5 -731.226 -409.5 -736.817 -409.5 -748V-893.5M-419 -177.184V-142.184C-419 -131.002 -419 -125.41 -420.827 -121C-423.263 -115.119 -427.935 -110.447 -433.816 -108.011C-438.226 -106.184 -443.817 -106.184 -455 -106.184H-791C-802.183 -106.184 -807.774 -106.184 -812.184 -104.357C-818.065 -101.922 -822.737 -97.2494 -825.173 -91.3688C-827 -86.9583 -827 -81.367 -827 -70.1844V86M256 -894H-1492C-1503.18 -894 -1508.77 -894 -1513.18 -892.173C-1519.07 -889.737 -1523.74 -885.065 -1526.17 -879.184C-1528 -874.774 -1528 -869.183 -1528 -858V50C-1528 61.1826 -1528 66.7739 -1526.17 71.1844C-1523.74 77.0651 -1519.07 81.7373 -1513.18 84.1731C-1508.77 86 -1503.18 86 -1492 86H256C267.183 86 272.774 86 277.184 84.1731C283.065 81.7373 287.737 77.0651 290.173 71.1844C292 66.7739 292 61.1826 292 50V-858C292 -869.183 292 -874.774 290.173 -879.184C287.737 -885.065 283.065 -889.737 277.184 -892.173C272.774 -894 267.183 -894 256 -894Z" stroke="#FF9983" stroke-width="1.2" stroke-linecap="round"/>
</g>
<g style="mix-blend-mode:hard-light" filter="url(#filter2_f_849_1930)">
<path d="M292 43C292 31.8174 292 26.2261 290.173 21.8156C287.737 15.9349 283.065 11.2628 277.184 8.8269C272.774 7 267.183 7 256 7H1M-827 -652.5V-676C-827 -687.183 -827 -692.774 -825.173 -697.184C-822.737 -703.065 -818.065 -707.737 -812.184 -710.173C-807.774 -712 -802.183 -712 -791 -712H-445.5C-434.317 -712 -428.726 -712 -424.316 -713.827C-418.435 -716.263 -413.763 -720.935 -411.327 -726.816C-409.5 -731.226 -409.5 -736.817 -409.5 -748V-893.5M-419 -177.173V-142.173C-419 -130.991 -419 -125.399 -420.827 -120.989C-423.263 -115.108 -427.935 -110.436 -433.816 -108C-438.226 -106.173 -443.817 -106.173 -455 -106.173H-791C-802.183 -106.173 -807.774 -106.173 -812.184 -104.346C-818.065 -101.91 -822.737 -97.2381 -825.173 -91.3575C-827 -86.947 -827 -81.3557 -827 -70.1731V86M256 -894H-1492C-1503.18 -894 -1508.77 -894 -1513.18 -892.173C-1519.07 -889.737 -1523.74 -885.065 -1526.17 -879.184C-1528 -874.774 -1528 -869.183 -1528 -858V50C-1528 61.1826 -1528 66.7739 -1526.17 71.1844C-1523.74 77.0651 -1519.07 81.7373 -1513.18 84.1731C-1508.77 86 -1503.18 86 -1492 86H256C267.183 86 272.774 86 277.184 84.1731C283.065 81.7373 287.737 77.0651 290.173 71.1844C292 66.7739 292 61.1826 292 50V-858C292 -869.183 292 -874.774 290.173 -879.184C287.737 -885.065 283.065 -889.737 277.184 -892.173C272.774 -894 267.183 -894 256 -894Z" stroke="white" stroke-width="0.6" stroke-linecap="round"/>
</g>
<defs>
<filter id="filter0_ddi_849_1930" x="-1532.9" y="-895.9" width="1829.8" height="989.8" filterUnits="userSpaceOnUse" color-interpolation-filters="sRGB">
<feFlood flood-opacity="0" result="BackgroundImageFix"/>
<feColorMatrix in="SourceAlpha" type="matrix" values="0 0 0 0 0 0 0 0 0 0 0 0 0 0 0 0 0 0 127 0" result="hardAlpha"/>
<feOffset dy="1.95"/>
<feGaussianBlur stdDeviation="0.75"/>
<feColorMatrix type="matrix" values="0 0 0 0 0.15 0 0 0 0 0 0 0 0 0 0 0 0 0 0.5 0"/>
<feBlend mode="multiply" in2="BackgroundImageFix" result="effect1_dropShadow_849_1930"/>
<feColorMatrix in="SourceAlpha" type="matrix" values="0 0 0 0 0 0 0 0 0 0 0 0 0 0 0 0 0 0 127 0" result="hardAlpha"/>
<feOffset dy="3"/>
<feGaussianBlur stdDeviation="1.95"/>
<feColorMatrix type="matrix" values="0 0 0 0 0.8 0 0 0 0 0.19 0 0 0 0 0.19 0 0 0 0.2 0"/>
<feBlend mode="color-dodge" in2="effect1_dropShadow_849_1930" result="effect2_dropShadow_849_1930"/>
<feBlend mode="normal" in="SourceGraphic" in2="effect2_dropShadow_849_1930" result="shape"/>
<feColorMatrix in="SourceAlpha" type="matrix" values="0 0 0 0 0 0 0 0 0 0 0 0 0 0 0 0 0 0 127 0" result="hardAlpha"/>
<feOffset dx="-0.195" dy="0.39"/>
<feGaussianBlur stdDeviation="0.0975"/>
<feComposite in2="hardAlpha" operator="arithmetic" k2="-1" k3="1"/>
<feColorMatrix type="matrix" values="0 0 0 0 1 0 0 0 0 1 0 0 0 0 1 0 0 0 0.1 0"/>
<feBlend mode="normal" in2="shape" result="effect3_innerShadow_849_1930"/>
</filter>
<filter id="filter1_f_849_1930" x="-1528.9" y="-894.9" width="1821.8" height="981.8" filterUnits="userSpaceOnUse" color-interpolation-filters="sRGB">
<feFlood flood-opacity="0" result="BackgroundImageFix"/>
<feBlend mode="normal" in="SourceGraphic" in2="BackgroundImageFix" result="shape"/>
<feGaussianBlur stdDeviation="0.15" result="effect1_foregroundBlur_849_1930"/>
</filter>
<filter id="filter2_f_849_1930" x="-1528.5" y="-894.5" width="1821" height="981" filterUnits="userSpaceOnUse" color-interpolation-filters="sRGB">
<feFlood flood-opacity="0" result="BackgroundImageFix"/>
<feBlend mode="normal" in="SourceGraphic" in2="BackgroundImageFix" result="shape"/>
<feGaussianBlur stdDeviation="0.1" result="effect1_foregroundBlur_849_1930"/>
</filter>
</defs>
</svg>
