<svg width="22" height="20" viewBox="0 0 22 20" fill="none" xmlns="http://www.w3.org/2000/svg">
<path d="M21 7.4998H16.21L11.82 0.929805C11.42 0.339805 10.55 0.339805 10.16 0.929805L5.77 7.4998H1C0.45 7.4998 0 7.9498 0 8.4998C0 8.5898 0.00999996 8.6798 0.04 8.7698L2.58 18.0398C2.81 18.8798 3.58 19.4998 4.5 19.4998H17.5C18.42 19.4998 19.19 18.8798 19.43 18.0398L21.97 8.7698L22 8.4998C22 7.9498 21.55 7.4998 21 7.4998ZM10.99 3.2898L13.8 7.4998H8.18L10.99 3.2898ZM11 15.4998C9.9 15.4998 9 14.5998 9 13.4998C9 12.3998 9.9 11.4998 11 11.4998C12.1 11.4998 13 12.3998 13 13.4998C13 14.5998 12.1 15.4998 11 15.4998Z" fill="#45475D"/>
</svg>
