<svg width="20" height="21" viewBox="0 0 20 21" fill="none" xmlns="http://www.w3.org/2000/svg">
<path d="M6 16.5C4.9 16.5 4.01 17.4 4.01 18.5C4.01 19.6 4.9 20.5 6 20.5C7.1 20.5 8 19.6 8 18.5C8 17.4 7.1 16.5 6 16.5ZM0 1.5C0 2.05 0.45 2.5 1 2.5H2L5.6 10.09L4.25 12.53C3.52 13.87 4.48 15.5 6 15.5H17C17.55 15.5 18 15.05 18 14.5C18 13.95 17.55 13.5 17 13.5H6L7.1 11.5H14.55C15.3 11.5 15.96 11.09 16.3 10.47L19.88 3.98C20.25 3.32 19.77 2.5 19.01 2.5H4.21L3.54 1.07C3.38 0.72 3.02 0.5 2.64 0.5H1C0.45 0.5 0 0.95 0 1.5ZM16 16.5C14.9 16.5 14.01 17.4 14.01 18.5C14.01 19.6 14.9 20.5 16 20.5C17.1 20.5 18 19.6 18 18.5C18 17.4 17.1 16.5 16 16.5Z" fill="#45475D"/>
</svg>
