<svg width="57" height="56" viewBox="0 0 57 56" fill="none" xmlns="http://www.w3.org/2000/svg">
<path d="M35.5 19C33.846 19 32.5 20.346 32.5 22C32.5 22.4618 32.6136 22.894 32.8008 23.2852L29.0859 27H24.3164C23.9021 25.8387 22.8016 25 21.5 25C19.846 25 18.5 26.346 18.5 28C18.5 29.654 19.846 31 21.5 31C22.8016 31 23.9021 30.1613 24.3164 29H29.0859L32.8008 32.7148C32.6136 33.106 32.5 33.5382 32.5 34C32.5 35.654 33.846 37 35.5 37C37.154 37 38.5 35.654 38.5 34C38.5 32.346 37.154 31 35.5 31C35.0382 31 34.606 31.1136 34.2148 31.3008L30.9141 28L34.2148 24.6992C34.606 24.8864 35.0382 25 35.5 25C37.154 25 38.5 23.654 38.5 22C38.5 20.346 37.154 19 35.5 19Z" fill="#45475D"/>
</svg>
