<svg width="16" height="21" viewBox="0 0 16 21" fill="none" xmlns="http://www.w3.org/2000/svg">
<path d="M9.172 0.5H2C0.9 0.5 0 1.4 0 2.5V18.5C0 19.6 0.9 20.5 2 20.5H14C15.1 20.5 16 19.6 16 18.5V7.328C16 6.798 15.789 6.289 15.414 5.914L10.586 1.086C10.211 0.711 9.702 0.5 9.172 0.5ZM11 16.5H5C4.448 16.5 4 16.052 4 15.5C4 14.948 4.448 14.5 5 14.5H11C11.552 14.5 12 14.948 12 15.5C12 16.052 11.552 16.5 11 16.5ZM11 12.5H5C4.448 12.5 4 12.052 4 11.5C4 10.948 4.448 10.5 5 10.5H11C11.552 10.5 12 10.948 12 11.5C12 12.052 11.552 12.5 11 12.5ZM9 7.5V2L14.5 7.5H9Z" fill="#45475D"/>
</svg>
