<svg width="16" height="16" viewBox="0 0 16 16" fill="none" xmlns="http://www.w3.org/2000/svg">
<g clip-path="url(#clip0_1063_4979)">
<path opacity="0.5" d="M7.28138 7.97344L3.5 3.56885H12.5L8.71862 7.97344C8.57765 8.13855 8.5 8.35001 8.5 8.56885V12.5688L7.5 12.0001V8.56885C7.5 8.35002 7.42236 8.13856 7.28138 7.97344Z" fill="#FF3041" fill-opacity="0.15"/>
<path fill-rule="evenodd" clip-rule="evenodd" d="M1.97035 3.82148C1.46902 3.23432 1.87839 2.31885 2.64227 2.31885H13.3577C14.1216 2.31885 14.531 3.23432 14.0296 3.82148L9.90331 8.6542V12.9105C9.90331 13.5805 9.21493 14.0193 8.62343 13.7264L6.59789 12.7233C6.29129 12.5715 6.09668 12.2547 6.09668 11.9074V8.6542L1.97035 3.82148ZM3.5 3.56885L7.28138 7.97344C7.42236 8.13856 7.5 8.35002 7.5 8.56885V12.0001L8.5 12.5688V8.56885C8.5 8.35001 8.57765 8.13855 8.71862 7.97344L12.5 3.56885H3.5Z" fill="#FF3041"/>
</g>
<defs>
<clipPath id="clip0_1063_4979">
<rect width="16" height="16" fill="white"/>
</clipPath>
</defs>
</svg>
