<svg width="24" height="24" viewBox="0 0 24 24" fill="none" xmlns="http://www.w3.org/2000/svg">
<path d="M14.168 2H6C4.896 2 4 2.93333 4 4.08333V22H10.4V21.1667H4.8V4.08333C4.8 3.39167 5.336 2.83333 6 2.83333H13.6V8.66667H19.2V21.1667H17.6V22H20V8.075L14.168 2ZM14.4 3.425L18.632 7.83333H14.4V3.425ZM14 12.8333C12.456 12.8333 11.2 14.1417 11.2 15.75C11.2 16.5417 11.504 17.2667 12 17.7917V22L14 20.4333L16 22V17.7917C16.496 17.2667 16.8 16.5417 16.8 15.75C16.8 14.1417 15.544 12.8333 14 12.8333ZM14 13.6667C15.104 13.6667 16 14.6 16 15.75C16 16.9 15.104 17.8333 14 17.8333C12.896 17.8333 12 16.9 12 15.75C12 14.6 12.896 13.6667 14 13.6667ZM14 19.4L12.8 20.3333V18.3833C13.16 18.5667 13.568 18.6667 14 18.6667C14.432 18.6667 14.84 18.5667 15.2 18.3833V20.3333L14 19.4Z" fill="#45475D"/>
</svg>
