<svg width="17" height="16" viewBox="0 0 17 16" fill="none" xmlns="http://www.w3.org/2000/svg">
<path d="M8.5 9.46967V11.333M8.5 9.46967C9.35666 9.46967 10.1812 9.36462 10.9527 9.17048M8.5 9.46967C7.64334 9.46967 6.81881 9.36462 6.04726 9.17048M14.5 7.33301C14.1151 7.68297 13.6786 7.99877 13.1996 8.27359M2.5 7.33301C2.88494 7.68297 3.32139 7.99877 3.80042 8.27359M10.9527 9.17048L11.5 10.9997M10.9527 9.17048C11.7693 8.96501 12.5265 8.65975 13.1996 8.27359M6.04726 9.17048L5.5 10.9997M6.04726 9.17048C5.23072 8.96501 4.47353 8.65975 3.80042 8.27359M3.80042 8.27359L2.83333 9.66634M13.1996 8.27359L14.1667 9.66634" stroke="#B1B1B1" stroke-width="1.5" stroke-linecap="square"/>
<path d="M4.5 6.00033C5.67669 5.15233 7.04285 4.66699 8.5 4.66699C9.95715 4.66699 11.3233 5.15233 12.5 6.00033" stroke="#B1B1B1" stroke-width="1.5" stroke-linecap="square"/>
</svg>
