<svg width="18" height="17" viewBox="0 0 18 17" fill="none" xmlns="http://www.w3.org/2000/svg">
<path d="M12.9653 10.9631H12.1776L11.8984 10.6941C13.095 9.29883 13.7132 7.39534 13.3742 5.37226C12.9055 2.60173 10.5921 0.389295 7.79996 0.0504531C3.5819 -0.467775 0.0319506 3.08009 0.550483 7.29568C0.889523 10.0861 3.10326 12.3982 5.87541 12.8666C7.89968 13.2055 9.80429 12.5876 11.2003 11.3917L11.4696 11.6707V12.458L15.7076 16.6935C16.1164 17.1021 16.7845 17.1021 17.1934 16.6935C17.6022 16.2849 17.6022 15.6172 17.1934 15.2086L12.9653 10.9631ZM6.98227 10.9631C4.4993 10.9631 2.49498 8.95999 2.49498 6.47847C2.49498 3.99696 4.4993 1.99381 6.98227 1.99381C9.46525 1.99381 11.4696 3.99696 11.4696 6.47847C11.4696 8.95999 9.46525 10.9631 6.98227 10.9631Z" fill="#45475D"/>
</svg>
