<svg width="57" height="56" viewBox="0 0 57 56" fill="none" xmlns="http://www.w3.org/2000/svg">
<path d="M28.1491 28.5263H19.5526C18.8843 28.5263 18.5 29.0526 18.5 29.5789V36.9474C18.5 37.4737 19.0263 38 19.5526 38H28.1491V28.5263ZM21.5702 31.8597C21.5702 31.3754 21.9632 30.9825 22.4474 30.9825H24.2018C24.686 30.9825 25.0789 31.3754 25.0789 31.8597C25.0789 32.3439 24.686 32.7368 24.2018 32.7368H22.4474C21.9632 32.7368 21.5702 32.3439 21.5702 31.8597ZM37.4474 28.5263H29.0263V38H37.4474C37.9737 38 38.5 37.4737 38.5 36.9474V29.5789C38.5 29.0526 37.9737 28.5263 37.4474 28.5263ZM34.5526 32.7368H32.7982C32.314 32.7368 31.9211 32.3439 31.9211 31.8597C31.9211 31.3754 32.314 30.9825 32.7982 30.9825H34.5526C35.0368 30.9825 35.4298 31.3754 35.4298 31.8597C35.4298 32.3439 35.0368 32.7368 34.5526 32.7368ZM27.0965 18L19.5534 18C19.0263 18 18.5 18.5263 18.5 19.0526V27.4737H28.1491V19.0526C28.1491 18.3299 27.6228 18 27.0965 18ZM23.875 22.386H22.5C22.0158 22.386 21.6228 21.993 21.6228 21.5088C21.6228 21.0246 22.0158 20.6316 22.5 20.6316H23.875C24.3592 20.6316 24.7522 21.0246 24.7522 21.5088C24.7522 21.993 24.3592 22.386 23.875 22.386Z" fill="#FF0909"/>
<path d="M1 54C1 53.1716 1.67157 52.5 2.5 52.5H54.5C55.3284 52.5 56 53.1716 56 54C56 54.8284 55.3284 55.5 54.5 55.5H2.5C1.67157 55.5 1 54.8284 1 54Z" fill="#FF0909" stroke="#FF0909"/>
</svg>
