<svg width="24" height="24" viewBox="0 0 24 24" fill="none" xmlns="http://www.w3.org/2000/svg">
<path d="M22 4.08333V22H12.8333V21.1667H21.1667V4.08333C21.1667 3.39417 20.6058 2.83333 19.9167 2.83333H9.08333C8.39417 2.83333 7.83333 3.39417 7.83333 4.08333V10.5692C7.56833 10.475 7.29 10.4075 7 10.375V4.08333C7 2.93417 7.93417 2 9.08333 2H19.9167C21.0658 2 22 2.93417 22 4.08333ZM18.6667 5.33333H10.3333V6.16667H18.6667V5.33333ZM10.3333 9.5H18.6667V8.66667H10.3333V9.5ZM10.3333 12.8333H17V12H10.3333V12.8333ZM16.1667 14.5C17.545 14.5 18.6667 15.6217 18.6667 17C18.6667 18.3783 17.545 19.5 16.1667 19.5C14.7883 19.5 13.6667 18.3783 13.6667 17C13.6667 15.6217 14.7883 14.5 16.1667 14.5ZM16.1667 15.3333C15.2475 15.3333 14.5 16.0808 14.5 17C14.5 17.9192 15.2475 18.6667 16.1667 18.6667C17.0858 18.6667 17.8333 17.9192 17.8333 17C17.8333 16.0808 17.0858 15.3333 16.1667 15.3333ZM10.3333 21.1667H11.1667V22H2V21.1667H2.83333V19.5C2.83333 18.5808 3.58083 17.8333 4.5 17.8333H5.65C4.89 15.83 4.5 14.5525 4.5 14.05C4.5 12.9 5.415 12 6.58333 12C7.75167 12 8.66667 12.9 8.66667 14.05C8.66667 14.5525 8.27667 15.83 7.51667 17.8333H8.66667C9.58583 17.8333 10.3333 18.5808 10.3333 19.5V21.1667ZM6.54 17.8333H6.62667C7.745 14.9225 7.83333 14.2033 7.83333 14.05C7.83333 13.3683 7.28417 12.8333 6.58333 12.8333C5.8825 12.8333 5.33333 13.3683 5.33333 14.05C5.33333 14.2033 5.42167 14.9225 6.54 17.8333ZM3.66667 21.1667H9.5V19.5C9.5 19.04 9.12667 18.6667 8.66667 18.6667H4.5C4.04 18.6667 3.66667 19.04 3.66667 19.5V21.1667Z" fill="#45475D"/>
</svg>
